# xmcd CD database file
#
# Track frame offsets:
#	151
#	16720
#	34433
#	54387
#	72863
#	93114
#	110034
#	136425
#	151560
#	167281
#	181910
#	200001
#	212020
#	229182
#	249926
#
# Disc length: 3514 seconds
#
# Revision: 0
# Processed by: cddbd v1.5.2PL0 Copyright (c) Steve Scherf et al.
# Submitted via: CDex 1.51
#
DISCID=bc0db80f
DTITLE=Relaxation - Relaxation
DYEAR=2004
DGENRE=New Age
TTITLE0=Paceful Evening Land
TTITLE1=Birds in paradise
TTITLE2=Colored garden
TTITLE3=Wonderful green earth
TTITLE4=Aurora's northern lights
TTITLE5=Clear delightful weather
TTITLE6=Sunny rainy days
TTITLE7=Lotus flowers
TTITLE8=Beyond the rainbow
TTITLE9=Falling leaves season
TTITLE10=Early morning landscape
TTITLE11=Spring equinox
TTITLE12=Forestial quiet nights
TTITLE13=The sun throught the trees
TTITLE14=Sky on the winter solstice
EXTD=YEAR: 2004
EXTT0=
EXTT1=
EXTT2=
EXTT3=
EXTT4=
EXTT5=
EXTT6=
EXTT7=
EXTT8=
EXTT9=
EXTT10=
EXTT11=
EXTT12=
EXTT13=
EXTT14=
PLAYORDER=
